<svg xmlns="http://www.w3.org/2000/svg" viewBox="0 0 130.21 33.85">
  <defs>
    <style>
      .cls-1 {
        fill: #fff;
      }
    </style>
  </defs>
  <title>Ativo 1</title>
  <g id="Camada_2" data-name="Camada 2">
    <g id="Layer_1" data-name="Layer 1">
      <g>
        <g>
          <path class="cls-1" d="M16.93,13.29A14.36,14.36,0,0,0,2.56,27.66a6.06,6.06,0,0,0,1,3.38,6.16,6.16,0,0,0,5.18,2.81,14.7,14.7,0,0,0,4.37-.78,12.76,12.76,0,0,1,3.81-.7,12.76,12.76,0,0,1,3.8.7,14.7,14.7,0,0,0,4.37.78,6.2,6.2,0,0,0,6.2-6.19A14.37,14.37,0,0,0,16.93,13.29Zm3.18,10.47H17.92V26a1,1,0,0,1-2,0v-2.2H13.74a1,1,0,1,1,0-2h2.19v-2.2a1,1,0,0,1,2,0v2.2h2.19a1,1,0,0,1,0,2Z"/>
          <path class="cls-1" d="M12.32,10.48a3.85,3.85,0,0,0,3-1.64,6,6,0,0,0,1.13-3.6,6,6,0,0,0-1.13-3.6,3.85,3.85,0,0,0-3-1.64,3.85,3.85,0,0,0-3,1.64,6,6,0,0,0-1.14,3.6,6,6,0,0,0,1.14,3.6,3.85,3.85,0,0,0,3,1.64Z"/>
          <path class="cls-1" d="M21.53,10.48a3.88,3.88,0,0,0,3-1.64,6,6,0,0,0,1.13-3.6,6,6,0,0,0-1.13-3.6,3.88,3.88,0,0,0-3-1.64,3.86,3.86,0,0,0-3.05,1.64,6,6,0,0,0-1.13,3.6,6,6,0,0,0,1.13,3.6,3.86,3.86,0,0,0,3.05,1.64Z"/>
          <path class="cls-1" d="M32.88,6a3.2,3.2,0,0,0-5.35,0,5.17,5.17,0,0,0-1,3.1,5.14,5.14,0,0,0,1,3.09,3.2,3.2,0,0,0,5.35,0,5.14,5.14,0,0,0,1-3.09,5.17,5.17,0,0,0-1-3.1Z"/>
          <path class="cls-1" d="M6.32,12.23a5.14,5.14,0,0,0,1-3.09,5.17,5.17,0,0,0-1-3.1A3.38,3.38,0,0,0,3.65,4.6,3.36,3.36,0,0,0,1,6a5.18,5.18,0,0,0-1,3.1,5.15,5.15,0,0,0,1,3.09,3.34,3.34,0,0,0,2.67,1.44,3.35,3.35,0,0,0,2.67-1.44Z"/>
        </g>
        <g>
          <g>
            <path class="cls-1" d="M40.43,13.18a3.55,3.55,0,0,1,1.38-1.39,4,4,0,0,1,2-.5,3.86,3.86,0,0,1,2.35.72,3.54,3.54,0,0,1,1.31,2H45.41a1.6,1.6,0,0,0-.65-.73,1.82,1.82,0,0,0-1-.26,1.78,1.78,0,0,0-1.41.61,2.32,2.32,0,0,0-.54,1.61,2.33,2.33,0,0,0,.54,1.62,1.78,1.78,0,0,0,1.41.61,1.82,1.82,0,0,0,1-.26,1.6,1.6,0,0,0,.65-.73h2.07a3.48,3.48,0,0,1-1.31,2,3.86,3.86,0,0,1-2.35.72,4,4,0,0,1-2-.5,3.55,3.55,0,0,1-1.38-1.39,4.11,4.11,0,0,1-.5-2A4.16,4.16,0,0,1,40.43,13.18Z"/>
            <path class="cls-1" d="M50.29,18.67a3.88,3.88,0,0,1-2-3.46,3.85,3.85,0,0,1,2-3.44,4.16,4.16,0,0,1,4,0,3.66,3.66,0,0,1,1.43,1.41,4.17,4.17,0,0,1,0,4.07,3.75,3.75,0,0,1-1.43,1.42,4.23,4.23,0,0,1-4,0Zm3.48-1.83a2.33,2.33,0,0,0,.55-1.63,2.33,2.33,0,0,0-.55-1.63,2.11,2.11,0,0,0-3,0,2.3,2.3,0,0,0-.56,1.63,2.35,2.35,0,0,0,.56,1.64,2.1,2.1,0,0,0,3,0Z"/>
            <path class="cls-1" d="M66,11.37V19.1H64.15V14.47L62.42,19.1H60.9l-1.74-4.65V19.1H57.28V11.37H59.5l2.17,5.35,2.15-5.35Z"/>
            <path class="cls-1" d="M73,15.09A2.22,2.22,0,0,1,72,16a3.27,3.27,0,0,1-1.58.35H69.26V19.1H67.38V11.37h3.05a3.53,3.53,0,0,1,1.56.32,2.35,2.35,0,0,1,1,.88,2.62,2.62,0,0,1,.31,1.29A2.54,2.54,0,0,1,73,15.09Zm-1.87-.51a1,1,0,0,0,.26-.72.94.94,0,0,0-.26-.71,1.14,1.14,0,0,0-.81-.26h-1v1.94h1A1.19,1.19,0,0,0,71.09,14.58Z"/>
            <path class="cls-1" d="M79.05,17.73H76.17l-.46,1.37h-2l2.79-7.73h2.18L81.5,19.1h-2Zm-.48-1.45-1-2.83-1,2.83Z"/>
            <path class="cls-1" d="M89.26,19.1H87.38l-3.15-4.77V19.1H82.35V11.37h1.88l3.15,4.79V11.37h1.88Z"/>
            <path class="cls-1" d="M97.24,11.37l-2.67,5.18V19.1H92.69V16.55L90,11.37h2.13l1.5,3.24,1.48-3.24Z"/>
            <path class="cls-1" d="M102.22,17.64h2.46V19.1h-4.34V11.37h1.88Z"/>
            <path class="cls-1" d="M107.24,18.67a3.71,3.71,0,0,1-1.44-1.42,4.1,4.1,0,0,1,0-4.07,3.75,3.75,0,0,1,1.44-1.41,4.16,4.16,0,0,1,4,0,3.73,3.73,0,0,1,1.43,1.41,4.24,4.24,0,0,1,0,4.07,3.82,3.82,0,0,1-1.43,1.42,4.23,4.23,0,0,1-4,0Zm3.47-1.83a2.34,2.34,0,0,0,.56-1.63,2.34,2.34,0,0,0-.56-1.63,1.89,1.89,0,0,0-1.48-.61,1.91,1.91,0,0,0-1.49.61,2.3,2.3,0,0,0-.55,1.63,2.34,2.34,0,0,0,.55,1.64,1.94,1.94,0,0,0,1.49.61A1.89,1.89,0,0,0,110.71,16.84Z"/>
            <path class="cls-1" d="M119.35,13.82a1.3,1.3,0,0,0-.59-.59,2,2,0,0,0-.92-.2,1.9,1.9,0,0,0-1.47.59,2.32,2.32,0,0,0-.55,1.6,2.32,2.32,0,0,0,.58,1.67,2.12,2.12,0,0,0,1.59.6,2,2,0,0,0,1.17-.35,2,2,0,0,0,.7-1h-2.39V14.74h4.1v1.75a3.73,3.73,0,0,1-.71,1.31,3.89,3.89,0,0,1-1.27,1,4,4,0,0,1-1.74.37,4,4,0,0,1-2-.5,3.53,3.53,0,0,1-1.4-1.39,4.11,4.11,0,0,1-.5-2,4.16,4.16,0,0,1,.5-2,3.57,3.57,0,0,1,1.39-1.39,4,4,0,0,1,2-.5,3.91,3.91,0,0,1,2.33.67,3.14,3.14,0,0,1,1.26,1.86Z"/>
            <path class="cls-1" d="M124.27,18.67a3.71,3.71,0,0,1-1.44-1.42,4.1,4.1,0,0,1,0-4.07,3.75,3.75,0,0,1,1.44-1.41,4.16,4.16,0,0,1,4,0,3.79,3.79,0,0,1,1.43,1.41,4,4,0,0,1,.52,2,3.88,3.88,0,0,1-.53,2,3.75,3.75,0,0,1-1.43,1.42,4.21,4.21,0,0,1-4,0Zm3.47-1.83a2.34,2.34,0,0,0,.56-1.63,2.34,2.34,0,0,0-.56-1.63,1.89,1.89,0,0,0-1.48-.61,1.91,1.91,0,0,0-1.49.61,2.3,2.3,0,0,0-.55,1.63,2.34,2.34,0,0,0,.55,1.64,1.94,1.94,0,0,0,1.49.61A1.89,1.89,0,0,0,127.74,16.84Z"/>
          </g>
          <g>
            <path class="cls-1" d="M40.92,29h1.95v.59H40.19V24h.73Z"/>
            <path class="cls-1" d="M44.44,29.37a2,2,0,0,1-.78-.79,2.61,2.61,0,0,1,0-2.39,2.09,2.09,0,0,1,.8-.79,2.36,2.36,0,0,1,1.13-.27,2.39,2.39,0,0,1,1.13.27,2.07,2.07,0,0,1,.79.79,2.31,2.31,0,0,1,.29,1.19,2.35,2.35,0,0,1-.3,1.2,2,2,0,0,1-.81.79,2.28,2.28,0,0,1-1.13.28A2.22,2.22,0,0,1,44.44,29.37Zm1.85-.54a1.41,1.41,0,0,0,.56-.55,1.81,1.81,0,0,0,.21-.9,1.75,1.75,0,0,0-.21-.89,1.36,1.36,0,0,0-.54-.55,1.55,1.55,0,0,0-.73-.18,1.49,1.49,0,0,0-.73.18,1.28,1.28,0,0,0-.53.55,1.75,1.75,0,0,0-.2.89,1.94,1.94,0,0,0,.19.91,1.31,1.31,0,0,0,.53.54,1.45,1.45,0,0,0,.72.18A1.55,1.55,0,0,0,46.29,28.83Z"/>
            <path class="cls-1" d="M50,25.33a1.7,1.7,0,0,1,.87-.21v.75h-.19c-.82,0-1.23.44-1.23,1.33v2.38h-.73V25.2h.73v.71A1.34,1.34,0,0,1,50,25.33Z"/>
            <path class="cls-1" d="M55.72,27.66h-3.5a1.42,1.42,0,0,0,.44,1,1.5,1.5,0,0,0,1.77.15,1.25,1.25,0,0,0,.45-.59h.78a1.93,1.93,0,0,1-.7,1,2.39,2.39,0,0,1-2.43.11,1.89,1.89,0,0,1-.77-.79,2.45,2.45,0,0,1-.28-1.2,2.52,2.52,0,0,1,.27-1.19,1.93,1.93,0,0,1,.76-.79,2.33,2.33,0,0,1,1.13-.27,2.23,2.23,0,0,1,1.11.27,1.91,1.91,0,0,1,.74.75,2.2,2.2,0,0,1,.26,1.07A3.37,3.37,0,0,1,55.72,27.66Zm-.91-1.31a1.15,1.15,0,0,0-.5-.45,1.47,1.47,0,0,0-.7-.16,1.37,1.37,0,0,0-.94.35,1.41,1.41,0,0,0-.44,1H55A1.38,1.38,0,0,0,54.81,26.35Z"/>
            <path class="cls-1" d="M62.89,25.33a1.44,1.44,0,0,1,.63.64,2,2,0,0,1,.24,1v2.58H63V27.1a1.39,1.39,0,0,0-.33-1,1.14,1.14,0,0,0-.87-.35,1.2,1.2,0,0,0-.91.36,1.55,1.55,0,0,0-.33,1.06v2.41h-.72V27.1a1.39,1.39,0,0,0-.33-1,1.14,1.14,0,0,0-.87-.35,1.2,1.2,0,0,0-.91.36,1.55,1.55,0,0,0-.33,1.06v2.41h-.73V25.2h.73v.63A1.35,1.35,0,0,1,58,25.3a1.77,1.77,0,0,1,.8-.18,1.88,1.88,0,0,1,1,.25,1.49,1.49,0,0,1,.63.72,1.39,1.39,0,0,1,.61-.72,1.76,1.76,0,0,1,.94-.25A1.94,1.94,0,0,1,62.89,25.33Z"/>
            <path class="cls-1" d="M67.81,24v5.57h-.73V24Z"/>
            <path class="cls-1" d="M70.42,25.38a1.93,1.93,0,0,1,1-.25,2,2,0,0,1,1.06.28,1.88,1.88,0,0,1,.75.78,2.5,2.5,0,0,1,.27,1.18,2.54,2.54,0,0,1-.27,1.19,2.09,2.09,0,0,1-.75.81,2,2,0,0,1-1.06.28,1.92,1.92,0,0,1-1-.25,1.87,1.87,0,0,1-.65-.63v2.89h-.73V25.2h.73V26A1.76,1.76,0,0,1,70.42,25.38Zm2.14,1.13A1.46,1.46,0,0,0,72,26a1.49,1.49,0,0,0-.75-.19,1.43,1.43,0,0,0-1.29.76,2,2,0,0,0,0,1.73,1.43,1.43,0,0,0,1.29.76,1.4,1.4,0,0,0,1.29-.76,1.87,1.87,0,0,0,.2-.88A1.82,1.82,0,0,0,72.56,26.51Z"/>
            <path class="cls-1" d="M75.11,29.48a1.4,1.4,0,0,1-.63-.48,1.25,1.25,0,0,1-.26-.71H75a.76.76,0,0,0,.31.54A1.14,1.14,0,0,0,76,29a1,1,0,0,0,.66-.19.55.55,0,0,0,.24-.46.47.47,0,0,0-.26-.43,3.69,3.69,0,0,0-.79-.27,8.14,8.14,0,0,1-.79-.26,1.31,1.31,0,0,1-.53-.4,1,1,0,0,1-.22-.68,1,1,0,0,1,.2-.62,1.36,1.36,0,0,1,.57-.44,2,2,0,0,1,.84-.16,1.82,1.82,0,0,1,1.17.36,1.32,1.32,0,0,1,.48,1h-.73a.72.72,0,0,0-.27-.55,1.21,1.21,0,0,0-1.3,0,.5.5,0,0,0-.23.44.48.48,0,0,0,.14.36,1.1,1.1,0,0,0,.35.22,5.21,5.21,0,0,0,.59.19,5.63,5.63,0,0,1,.76.25,1.34,1.34,0,0,1,.51.37,1,1,0,0,1,.22.65,1.14,1.14,0,0,1-.2.65,1.33,1.33,0,0,1-.56.45,2,2,0,0,1-.84.16A2.16,2.16,0,0,1,75.11,29.48Z"/>
            <path class="cls-1" d="M82.52,25.2v4.38H81.8v-.65a1.48,1.48,0,0,1-.58.53,1.9,1.9,0,0,1-.82.19,2,2,0,0,1-.92-.22,1.52,1.52,0,0,1-.65-.63,2.09,2.09,0,0,1-.23-1V25.2h.72v2.47a1.42,1.42,0,0,0,.32,1,1.36,1.36,0,0,0,1.82,0,1.49,1.49,0,0,0,.34-1V25.2Z"/>
            <path class="cls-1" d="M89.94,25.33a1.44,1.44,0,0,1,.63.64,2,2,0,0,1,.23,1v2.58h-.72V27.1a1.38,1.38,0,0,0-.32-1,1.29,1.29,0,0,0-1.78,0,1.55,1.55,0,0,0-.34,1.06v2.41h-.72V27.1a1.38,1.38,0,0,0-.32-1,1.29,1.29,0,0,0-1.78,0,1.55,1.55,0,0,0-.34,1.06v2.41h-.72V25.2h.72v.63a1.48,1.48,0,0,1,.58-.53,2,2,0,0,1,1.78.07,1.46,1.46,0,0,1,.64.72,1.42,1.42,0,0,1,.6-.72,1.82,1.82,0,0,1,1-.25A1.94,1.94,0,0,1,89.94,25.33Z"/>
            <path class="cls-1" d="M94.13,26.19a1.88,1.88,0,0,1,.75-.78,2,2,0,0,1,1.06-.28,2,2,0,0,1,1,.24,1.73,1.73,0,0,1,.63.63v-.8h.74v4.38h-.74v-.81a1.76,1.76,0,0,1-.64.63,1.93,1.93,0,0,1-1,.25,2,2,0,0,1-1.05-.28,2.09,2.09,0,0,1-.75-.81,2.54,2.54,0,0,1-.27-1.19A2.5,2.5,0,0,1,94.13,26.19Zm3.24.33a1.35,1.35,0,0,0-.54-.57,1.47,1.47,0,0,0-.75-.19,1.43,1.43,0,0,0-.74.19,1.46,1.46,0,0,0-.54.56,1.82,1.82,0,0,0-.2.86,1.87,1.87,0,0,0,.2.88,1.49,1.49,0,0,0,.54.57,1.43,1.43,0,0,0,.74.19,1.47,1.47,0,0,0,.75-.19,1.35,1.35,0,0,0,.54-.57,1.86,1.86,0,0,0,.2-.87A1.79,1.79,0,0,0,97.37,26.52Z"/>
            <path class="cls-1" d="M101.17,28.91l1.36-3.71h.78l-1.72,4.38h-.85L99,25.2h.78Z"/>
            <path class="cls-1" d="M104,26.19a1.88,1.88,0,0,1,.75-.78,2,2,0,0,1,1.06-.28,2,2,0,0,1,1,.24,1.73,1.73,0,0,1,.63.63v-.8h.73v4.38h-.73v-.81a1.79,1.79,0,0,1-.65.63,1.87,1.87,0,0,1-1,.25,2,2,0,0,1-1.06-.28,2.14,2.14,0,0,1-.74-.81,2.54,2.54,0,0,1-.27-1.19A2.5,2.5,0,0,1,104,26.19Zm3.24.33a1.4,1.4,0,0,0-1.29-.76,1.43,1.43,0,0,0-.74.19,1.33,1.33,0,0,0-.54.56,1.82,1.82,0,0,0-.2.86,1.87,1.87,0,0,0,.2.88,1.35,1.35,0,0,0,.54.57A1.43,1.43,0,0,0,106,29a1.4,1.4,0,0,0,1.29-.76,1.86,1.86,0,0,0,.2-.87A1.79,1.79,0,0,0,107.27,26.52Z"/>
            <path class="cls-1" d="M109.46,24.34a.51.51,0,0,1,0-.7.47.47,0,0,1,.35-.15.45.45,0,0,1,.34.15.51.51,0,0,1,0,.7.45.45,0,0,1-.34.15A.47.47,0,0,1,109.46,24.34Zm.7.86v4.38h-.72V25.2Z"/>
            <path class="cls-1" d="M112.13,23.66v5.92h-.73V23.66Z"/>
            <path class="cls-1" d="M113.37,26.19a1.88,1.88,0,0,1,.75-.78,2,2,0,0,1,1.06-.28,2,2,0,0,1,1,.24,1.73,1.73,0,0,1,.63.63v-.8h.74v4.38h-.74v-.81a1.76,1.76,0,0,1-.64.63,1.93,1.93,0,0,1-1,.25,2,2,0,0,1-1-.28,2.09,2.09,0,0,1-.75-.81,2.54,2.54,0,0,1-.27-1.19A2.5,2.5,0,0,1,113.37,26.19Zm3.24.33a1.35,1.35,0,0,0-.54-.57,1.47,1.47,0,0,0-.75-.19,1.43,1.43,0,0,0-.74.19,1.46,1.46,0,0,0-.54.56,1.82,1.82,0,0,0-.2.86,1.87,1.87,0,0,0,.2.88,1.49,1.49,0,0,0,.54.57,1.43,1.43,0,0,0,.74.19,1.47,1.47,0,0,0,.75-.19,1.35,1.35,0,0,0,.54-.57,1.86,1.86,0,0,0,.2-.87A1.79,1.79,0,0,0,116.61,26.52Z"/>
            <path class="cls-1" d="M120.16,25.37a2.15,2.15,0,0,1,2,0,1.86,1.86,0,0,1,.74.78,2.39,2.39,0,0,1,.28,1.18,2.43,2.43,0,0,1-.28,1.19,2.14,2.14,0,0,1-.74.81,2.17,2.17,0,0,1-2.06,0,1.71,1.71,0,0,1-.64-.64v.81h-.73V23.66h.73V26A1.74,1.74,0,0,1,120.16,25.37Zm2.12,1.14a1.33,1.33,0,0,0-.54-.56,1.44,1.44,0,0,0-.75-.19,1.4,1.4,0,0,0-1.28.76,2,2,0,0,0,0,1.73A1.4,1.4,0,0,0,121,29a1.44,1.44,0,0,0,.75-.19,1.35,1.35,0,0,0,.54-.57,1.76,1.76,0,0,0,.2-.88A1.71,1.71,0,0,0,122.28,26.51Z"/>
            <path class="cls-1" d="M124.92,23.66v5.92h-.73V23.66Z"/>
            <path class="cls-1" d="M130.13,27.66h-3.5a1.44,1.44,0,0,0,2.21,1.16,1.17,1.17,0,0,0,.44-.59h.79a2,2,0,0,1-.71,1,2.14,2.14,0,0,1-1.31.39,2.22,2.22,0,0,1-1.12-.28,2,2,0,0,1-.77-.79,2.56,2.56,0,0,1-.28-1.2,2.41,2.41,0,0,1,.28-1.19,1.93,1.93,0,0,1,.76-.79,2.3,2.3,0,0,1,1.13-.27,2.25,2.25,0,0,1,1.11.27,1.88,1.88,0,0,1,.73.75,2.1,2.1,0,0,1,.27,1.07A3.37,3.37,0,0,1,130.13,27.66Zm-.91-1.31a1.15,1.15,0,0,0-.5-.45,1.5,1.5,0,0,0-.7-.16,1.37,1.37,0,0,0-.94.35,1.41,1.41,0,0,0-.44,1h2.76A1.37,1.37,0,0,0,129.22,26.35Z"/>
          </g>
        </g>
      </g>
    </g>
  </g>
</svg>
